<svg xmlns="http://www.w3.org/2000/svg" width="162.24" height="56.814" viewBox="0 0 162.24 56.814">
  <g id="BBB_Logo" data-name="BBB Logo" style="isolation: isolate">
    <rect id="Rectangle_4721" data-name="Rectangle 4721" width="140" height="55" rx="8" transform="translate(0 1)" fill="#fff"/>
    <g id="Layer_1" data-name="Layer 1">
      <path id="Path_1082" data-name="Path 1082" d="M158.883,49.448V7.554A6.877,6.877,0,0,0,152.005.677H60.252V56.325h91.754a6.877,6.877,0,0,0,6.877-6.877" transform="translate(-8.386 -0.094)" fill="#242424"/>
      <path id="Path_1083" data-name="Path 1083" d="M151.911,56.814H59.577V0h92.334a7.469,7.469,0,0,1,7.46,7.46V49.354a7.469,7.469,0,0,1-7.46,7.46M60.743,55.649h91.169a6.3,6.3,0,0,0,6.295-6.295V7.46a6.3,6.3,0,0,0-6.295-6.295H60.743Z" transform="translate(-8.292)" fill="#242424"/>
      <path id="Path_1084" data-name="Path 1084" d="M24.632,19.454l-2.4,3.311a4.477,4.477,0,0,0,.812,5.778l4.449,3.211c.764.552.823,1.1.461,1.68l.647.481,2.253-3.121a4.222,4.222,0,0,0-.795-6.056l-4.489-3.271a1.12,1.12,0,0,1-.3-1.545l-.647-.461M28.481,4.843,24.744,10.01a6.413,6.413,0,0,0,1.28,8.321l6.142,4.509a3.466,3.466,0,0,1,.5,4.434l.521.391,4.238-5.959a6.272,6.272,0,0,0-1.2-8.8L29.659,8.13a2,2,0,0,1-.614-2.887l-.565-.4M18.635,37.249h4.95l.883,3H32.56l.883-3h4.953l-.649-2.207H19.284l-.649,2.207m2.32,10.042a2.559,2.559,0,0,0,1.4-2.284c0-2.05-1.68-2.887-3.514-2.887h-5.12V53.008H18.8c2.167,0,4.463-.947,4.092-3.441-.221-1.428-.786-1.766-1.936-2.278M16.035,44.2H18.7a1.164,1.164,0,1,1,.1,2.322h-2.77Zm2.973,6.747H16.035V48.468h2.973C21.191,48.468,21.056,50.951,19.008,50.951Zm12.112-3.659a2.559,2.559,0,0,0,1.4-2.284c0-2.05-1.68-2.887-3.514-2.887H23.89V53.008h5.076c2.165,0,4.463-.947,4.092-3.441-.221-1.428-.786-1.766-1.936-2.278M26.21,44.2h2.659a1.164,1.164,0,1,1,.1,2.322H26.208Zm2.966,6.749H26.208V48.468h2.966c2.181,0,2.048,2.483,0,2.483Zm14.046-1.379c-.221-1.428-.786-1.766-1.936-2.278a2.559,2.559,0,0,0,1.4-2.284c0-2.05-1.68-2.887-3.514-2.887h-5.12V53.008h5.076c2.165,0,4.463-.947,4.092-3.441M36.382,44.2h2.651a1.164,1.164,0,1,1,.1,2.322H36.373Zm2.966,6.749H36.373V48.468H39.34c2.181,0,2.048,2.483,0,2.483Z" transform="translate(-1.91 -0.674)" fill="#424242" fill-rule="evenodd"/>
      <path id="Path_1085" data-name="Path 1085" d="M76,29.019l-.5-1.371H72.03l-.51,1.371H69.554l3.132-8.1h2.161l3.119,8.1Zm-2.231-6.374L72.5,26.128h2.525Zm4.648,2.331a4.118,4.118,0,0,1,4.308-4.193,3.706,3.706,0,0,1,3.386,1.986l-1.481.728a2.194,2.194,0,0,0-1.894-1.183A2.518,2.518,0,0,0,80.2,24.963a2.518,2.518,0,0,0,2.536,2.648,2.17,2.17,0,0,0,1.9-1.176l1.472.735a3.727,3.727,0,0,1-3.386,1.986,4.113,4.113,0,0,1-4.31-4.18Zm8.424,0a4.118,4.118,0,0,1,4.308-4.193,3.706,3.706,0,0,1,3.386,1.986l-1.481.728a2.194,2.194,0,0,0-1.9-1.183,2.518,2.518,0,0,0-2.536,2.648,2.518,2.518,0,0,0,2.536,2.648,2.17,2.17,0,0,0,1.9-1.176l1.481.715a3.727,3.727,0,0,1-3.386,1.986A4.08,4.08,0,0,1,86.839,24.976Zm13.388,4.043L98.638,26.15H97.376v2.869H95.652v-8.1h3.787a2.521,2.521,0,0,1,2.719,2.609,2.317,2.317,0,0,1-1.766,2.4l1.821,3.09Zm.163-5.487a1.1,1.1,0,0,0-1.214-1.092H97.369v2.185h1.808a1.1,1.1,0,0,0,1.214-1.092Zm3.152,5.487v-8.1h5.738V22.44h-4.015v1.71h3.92v1.516h-3.92V27.5h4.006v1.516Zm7.162,0v-8.1H113.9a4.055,4.055,0,1,1,0,8.1Zm5.738-4.041a2.373,2.373,0,0,0-2.536-2.536h-1.468V27.5h1.468a2.421,2.421,0,0,0,2.527-2.525Zm3.063,4.041v-8.1h1.724v8.1Zm5.279,0V22.44h-2.368V20.924h6.458V22.44H126.52v6.579Zm5.279,0v-8.1H135.8V22.44h-4.015v1.71H135.7v1.516h-3.915V27.5h4.006v1.516Zm7.162,0v-8.1h3.191a4.055,4.055,0,1,1,0,8.1Zm5.738-4.041a2.373,2.373,0,0,0-2.536-2.536h-1.468V27.5h1.468a2.42,2.42,0,0,0,2.527-2.525ZM70.417,42.924v-8.1h4.26a2.092,2.092,0,0,1,2.331,2.064,1.8,1.8,0,0,1-1.395,1.856,1.954,1.954,0,0,1,1.545,1.986A2.132,2.132,0,0,1,74.8,42.919Zm4.831-5.738A.883.883,0,0,0,74.3,36.3H72.14v1.766H74.3a.861.861,0,0,0,.945-.874ZM75.4,40.5a.946.946,0,0,0-1.044-.947H72.14v1.88h2.22A.918.918,0,0,0,75.4,40.5Zm3.136-.8V34.828h1.766v4.807a1.9,1.9,0,1,0,3.8,0V34.828H85.87v4.856c0,2.015-1.19,3.386-3.653,3.386s-3.677-1.384-3.677-3.375Zm8.444,2.088.934-1.311a3.549,3.549,0,0,0,2.573,1.092c.947,0,1.408-.441,1.408-.9,0-.594-.753-.764-1.638-.982-1.324-.3-3.021-.662-3.021-2.512,0-1.346,1.165-2.463,3.07-2.463a4.508,4.508,0,0,1,3.156,1.128l-.96,1.265a3.476,3.476,0,0,0-2.355-.883c-.739,0-1.152.329-1.152.812,0,.523.739.691,1.613.9,1.324.316,3.035.717,3.035,2.549,0,1.481-1.055,2.6-3.24,2.6a4.683,4.683,0,0,1-3.423-1.293ZM94.9,42.924v-8.1h1.724v8.1Zm8.994,0-3.86-5.279v5.279H98.309v-8.1h1.766l3.752,5.076V34.828h1.724v8.1Zm3.35,0v-8.1h5.738v1.516h-4.015v1.71h3.92v1.516h-3.92V41.4h4v1.516Zm6.61-1.141.934-1.311a3.549,3.549,0,0,0,2.573,1.092c.947,0,1.408-.441,1.408-.9,0-.594-.753-.764-1.638-.982-1.324-.3-3.021-.662-3.021-2.512,0-1.346,1.165-2.463,3.07-2.463a4.508,4.508,0,0,1,3.156,1.128l-.953,1.265a3.478,3.478,0,0,0-2.355-.883c-.739,0-1.152.329-1.152.812,0,.523.742.691,1.613.9,1.324.316,3.035.717,3.035,2.549,0,1.481-1.055,2.6-3.24,2.6a4.711,4.711,0,0,1-3.43-1.293Zm7.376,0,.934-1.311a3.549,3.549,0,0,0,2.573,1.092c.947,0,1.408-.441,1.408-.9,0-.594-.753-.764-1.638-.982-1.324-.3-3.021-.662-3.021-2.512,0-1.346,1.165-2.463,3.07-2.463a4.508,4.508,0,0,1,3.156,1.128l-.96,1.265a3.478,3.478,0,0,0-2.355-.883c-.739,0-1.152.329-1.152.812,0,.523.742.691,1.613.9,1.324.316,3.035.717,3.035,2.549,0,1.481-1.055,2.6-3.24,2.6a4.676,4.676,0,0,1-3.423-1.293Z" transform="translate(-9.681 -2.892)" fill="#fff"/>
      <path id="Path_1086" data-name="Path 1086" d="M152.653,52.031V52a4.794,4.794,0,0,1,9.587-.026V52a4.794,4.794,0,0,1-9.587.026ZM161.8,52v-.026A4.357,4.357,0,0,0,153.09,52v.026A4.357,4.357,0,1,0,161.8,52Zm-6.237-2.6h2.207a2.046,2.046,0,0,1,1.457.516,1.293,1.293,0,0,1,.4.953v.026a1.456,1.456,0,0,1-1.271,1.443l1.523,1.973h-.9l-1.417-1.854H156.3v1.854h-.728Zm2.132,2.41c.689,0,1.165-.318,1.165-.883V50.91c0-.516-.424-.848-1.126-.848h-1.443V51.81ZM52.45,56.814H7.46A7.469,7.469,0,0,1,0,49.354V7.46A7.469,7.469,0,0,1,7.46,0H52.451V56.814M7.46,1.165A6.3,6.3,0,0,0,1.165,7.46V49.354A6.3,6.3,0,0,0,7.46,55.649H51.285V1.165Z" fill="#242424"/>
    </g>
  </g>
</svg>
