<svg id="facebook-icon" xmlns="http://www.w3.org/2000/svg" width="36" height="36" viewBox="0 0 36 36">
  <rect id="Rectangle_30" data-name="Rectangle 30" width="36" height="36" rx="4" fill="#fff" opacity="0.1"/>
  <g id="facebook-logo_1_" data-name="facebook-logo (1)" transform="translate(13.619 10.982)">
    <path id="Path_201" data-name="Path 201" d="M29.76,0,27.845,0A3.363,3.363,0,0,0,24.3,3.634V5.309H22.378a.3.3,0,0,0-.3.3V8.038a.3.3,0,0,0,.3.3H24.3v6.126a.3.3,0,0,0,.3.3h2.512a.3.3,0,0,0,.3-.3V8.339h2.251a.3.3,0,0,0,.3-.3V5.611a.3.3,0,0,0-.3-.3H27.417V3.889c0-.683.163-1.029,1.052-1.029h1.29a.3.3,0,0,0,.3-.3V.3A.3.3,0,0,0,29.76,0Z" transform="translate(-22.077)" fill="#fff"/>
  </g>
</svg>
