<svg xmlns="http://www.w3.org/2000/svg" width="36" height="36" viewBox="0 0 36 36">
  <g id="instagram-icon" transform="translate(-96)">
    <rect id="Rectangle_30" data-name="Rectangle 30" width="36" height="36" rx="4" transform="translate(96)" fill="#fff" opacity="0.1"/>
    <g id="XMLID_801_" transform="translate(107.231 11.024)">
      <path id="XMLID_802_" d="M7.981,99.73H5.154a.227.227,0,0,0-.227.227v9.08a.227.227,0,0,0,.227.227H7.981a.227.227,0,0,0,.227-.227v-9.08A.227.227,0,0,0,7.981,99.73Z" transform="translate(-4.703 -95.216)" fill="#fff"/>
      <path id="XMLID_803_" d="M1.865.341A1.863,1.863,0,1,0,3.729,2.2,1.866,1.866,0,0,0,1.865.341Z" transform="translate(0 -0.341)" fill="#fff"/>
      <path id="XMLID_804_" d="M111.82,94.761a3.32,3.32,0,0,0-2.483,1.043v-.59a.227.227,0,0,0-.227-.227H106.4a.227.227,0,0,0-.227.227v9.08a.227.227,0,0,0,.227.227h2.82a.227.227,0,0,0,.227-.227V99.8c0-1.514.411-2.1,1.467-2.1,1.149,0,1.241.946,1.241,2.182v4.415a.227.227,0,0,0,.227.227h2.821a.227.227,0,0,0,.227-.227V99.313C115.433,97.062,115,94.761,111.82,94.761Z" transform="translate(-101.354 -90.473)" fill="#fff"/>
    </g>
  </g>
</svg>
