<svg xmlns="http://www.w3.org/2000/svg" width="58.923" height="42" viewBox="0 0 58.923 42">
  <path id="NTW-logo" d="M187.565,286.855,186.7,290.1l-7.118,26.593-.869,3.243h20.319l1.078,4.993.848,3.928,2.669-3,5.26-5.917h19.953l.862-3.243,7.07-26.593.863-3.244Zm18.466,28.807-2.591,2.948-.764-3.854.806-3.01,0-.084,4.266-2.411Zm2.178-8.777-4.351,2.458,1.086-4.057,4.351-2.46Zm15.735,6.807h-3.595V301.934l-3.17,11.758h-3.64V296.827h-2.726l-.9,3.318-4.4,2.457,1.565-5.774h-4.553l-4.574,16.864h-3.431l-1.37-11.117-2.985,11.117h-3.692l5.474-20.431h3.66l1.372,11.211,3-11.211h17.134v9.9l2.676-9.9h3.324v9.912l2.619-9.912h3.692Z" transform="translate(-178.708 -286.855)" fill="#fff" opacity="0.8"/>
</svg>
