<svg id="quality-elegance-precision-icon" xmlns="http://www.w3.org/2000/svg" width="50" height="50" viewBox="0 0 50 50">
  <path id="Path_789" data-name="Path 789" d="M306.977,97.953a.977.977,0,1,0-.977-.977A.977.977,0,0,0,306.977,97.953Z" transform="translate(-276.117 -86.625)" fill="#3f74ff"/>
  <path id="Path_790" data-name="Path 790" d="M340.6,118.505a14.706,14.706,0,0,1,4.958,6.342.977.977,0,0,0,1.81-.735,16.66,16.66,0,0,0-5.615-7.185.977.977,0,1,0-1.152,1.577Z" transform="translate(-306.977 -105.34)" fill="#3f74ff"/>
  <path id="Path_791" data-name="Path 791" d="M49.023,24.023H45.484A20.535,20.535,0,0,0,25.977,4.516V.977a.977.977,0,0,0-1.953,0V4.516A20.535,20.535,0,0,0,4.516,24.023H.977a.977.977,0,0,0,0,1.953H4.516A20.535,20.535,0,0,0,24.023,45.484v3.539a.977.977,0,0,0,1.953,0V45.484A20.535,20.535,0,0,0,45.484,25.977h3.539a.977.977,0,0,0,0-1.953Zm-5.494,0H36.678a11.738,11.738,0,0,0-10.7-10.7V6.471A18.581,18.581,0,0,1,43.529,24.023ZM32.813,25.976h1.9a9.784,9.784,0,0,1-8.74,8.741v-1.9a.977.977,0,0,0-1.953,0v1.9a9.783,9.783,0,0,1-8.74-8.74h1.9a.977.977,0,0,0,0-1.953h-1.9a9.783,9.783,0,0,1,8.74-8.74v1.9a.977.977,0,0,0,1.953,0v-1.9a9.783,9.783,0,0,1,8.74,8.74h-1.9a.976.976,0,1,0,0,1.952Zm-8.789-19.5v6.851a11.738,11.738,0,0,0-10.7,10.7H6.471A18.581,18.581,0,0,1,24.023,6.471ZM6.471,25.977h6.851a11.738,11.738,0,0,0,10.7,10.7v6.851A18.581,18.581,0,0,1,6.471,25.977ZM25.977,43.529V36.678a11.738,11.738,0,0,0,10.7-10.7h6.851A18.582,18.582,0,0,1,25.977,43.529Z" fill="#3f74ff"/>
  <path id="Path_792" data-name="Path 792" d="M214.789,209.906h-2.93v-2.93a.977.977,0,0,0-1.953,0v2.93h-2.93a.977.977,0,0,0,0,1.953h2.93v2.93a.977.977,0,0,0,1.953,0v-2.93h2.93a.977.977,0,0,0,0-1.953Z" transform="translate(-185.883 -185.883)" fill="#3f74ff"/>
</svg>
