<svg id="quality-one-project-time" xmlns="http://www.w3.org/2000/svg" width="50" height="50" viewBox="0 0 50 50">
  <path id="Path_796" data-name="Path 796" d="M231.625,139.672a.977.977,0,0,0,0-1.953h-7.936a3.921,3.921,0,0,0-2.806-2.806v-7.936a.977.977,0,0,0-1.953,0v7.936a3.906,3.906,0,1,0,4.759,4.759Zm-11.719.977a1.953,1.953,0,1,1,1.953-1.953A1.955,1.955,0,0,1,219.906,140.648Z" transform="translate(-194.906 -113.695)" fill="#3f74ff"/>
  <path id="Path_797" data-name="Path 797" d="M25,0A25,25,0,1,0,50,25,24.973,24.973,0,0,0,25,0Zm0,48.047A23.047,23.047,0,1,1,48.047,25,23.073,23.073,0,0,1,25,48.047Z" fill="#3f74ff"/>
  <circle id="Ellipse_3" data-name="Ellipse 3" cx="0.977" cy="0.977" r="0.977" transform="translate(24.023 42.188)" fill="#3f74ff"/>
  <path id="Path_798" data-name="Path 798" d="M79.141,60a19.142,19.142,0,0,0-4.6,37.723.977.977,0,1,0,.469-1.9,17.188,17.188,0,1,1,8.256,0,.977.977,0,1,0,.469,1.9A19.142,19.142,0,0,0,79.141,60Z" transform="translate(-54.141 -54.141)" fill="#3f74ff"/>
</svg>
