<svg xmlns="http://www.w3.org/2000/svg" width="50" height="50" viewBox="0 0 50 50">
  <g id="quality-excellent-workmanship-icon" transform="translate(-1.146 0)">
    <path id="Path_786" data-name="Path 786" d="M394.128,388.782a.969.969,0,0,0-1.177,1.54l1.656,1.266a.969.969,0,0,0,1.306-.119l3.165-3.495a.969.969,0,0,0-1.436-1.3l-2.566,2.834Z" transform="translate(-353.276 -348.92)" fill="#3f74ff"/>
    <path id="Path_787" data-name="Path 787" d="M51.139,34.69a.971.971,0,0,0-.888-.943A12.545,12.545,0,0,1,42.993,29.8a.976.976,0,0,0-.705-.3h0a.975.975,0,0,0-.705.3,14.726,14.726,0,0,1-3.157,2.5,17.576,17.576,0,0,0-7.258-4.832c-.025-.01-.05-.019-.076-.027q-.333-.117-.674-.224c2.411-2.393,4.032-5.539,4.032-8.36V17.334a3.2,3.2,0,0,0-.137-5.936A11.967,11.967,0,0,0,25.69,1.155,1.461,1.461,0,0,0,24.261,0H20.735a1.46,1.46,0,0,0-1.411,1.086,12.108,12.108,0,0,0-6.007,3.746,11.953,11.953,0,0,0-2.86,6.568,3.2,3.2,0,0,0-.135,5.936v1.522c0,2.819,1.622,5.965,4.032,8.361q-.331.1-.655.217a.971.971,0,0,0-.124.044,17.564,17.564,0,0,0-7.94,5.661A22.54,22.54,0,0,0,1.4,42.387c-.287,1.293-.5,2.917.382,4.014.865,1.072,2.412,1.209,3.663,1.209h6.366a.969.969,0,1,0,0-1.938H5.443c-1.164,0-1.886-.163-2.146-.485-.275-.341-.275-1.142,0-2.382,1.011-4.536,3.485-10.086,9.444-12.889a9.39,9.39,0,0,0,2.731,6.771.976.976,0,0,0,1.427.076l5.485-5.31,5.488,5.311a.976.976,0,0,0,.678.274H28.6a.975.975,0,0,0,.7-.349,9.406,9.406,0,0,0,2.728-6.766,15.514,15.514,0,0,1,4.57,3.268,8.447,8.447,0,0,1-2.275.558.971.971,0,0,0-.888.943A16.2,16.2,0,0,0,35.5,43.541c.013.025.543.971,1.37,2.132H20.621a.969.969,0,1,0,0,1.938h17.8C39.591,48.9,40.975,50,42.287,50c3.166,0,6.75-6.395,6.784-6.459a16.251,16.251,0,0,0,2.068-8.851ZM32.325,11.19H26.967A20.9,20.9,0,0,1,25.729,3.2a10.029,10.029,0,0,1,6.6,7.991Zm-11.1-9.252h2.554c.006,3.75.1,6.291,1.121,9.252H20.1C21.119,8.228,21.215,5.688,21.221,1.938ZM19.268,3.122a21.073,21.073,0,0,1-1.237,8.068H12.445a10.161,10.161,0,0,1,6.823-8.068ZM11.6,13.127h6.511c.057.046.113.052.159,0h14.9a1.267,1.267,0,1,1,0,2.534H11.6a1.267,1.267,0,1,1,0-2.534Zm.667,5.729V17.6H32.5v1.257c0,3.694-3.595,8.263-7.693,9.777a6.185,6.185,0,0,1-4.864,0C15.856,27.111,12.268,22.543,12.268,18.857Zm4.039,15.777A6.572,6.572,0,0,1,14.8,29.11q.644-.207,1.333-.375a13.1,13.1,0,0,0,3.137,1.713c.353.131.693.238,1.026.328Zm12.155,0-3.987-3.858c.328-.089.664-.195,1.012-.324a13.091,13.091,0,0,0,3.152-1.716q.681.165,1.332.374a6.575,6.575,0,0,1-1.509,5.523Zm18.894,7.993c-1.151,2.139-3.846,5.437-5.069,5.437s-3.918-3.3-5.07-5.438a13.948,13.948,0,0,1-1.843-7.07,12.254,12.254,0,0,0,3.218-1.134.974.974,0,0,0,.111-.057,16.4,16.4,0,0,0,3.583-2.531A14.66,14.66,0,0,0,49.2,35.555,13.994,13.994,0,0,1,47.356,42.625Z" transform="translate(0)" fill="#3f74ff"/>
    <path id="Path_788" data-name="Path 788" d="M146.943,471.373a.969.969,0,1,0,0,1.938h.006a.969.969,0,0,0-.006-1.938Z" transform="translate(-130.73 -425.701)" fill="#3f74ff"/>
  </g>
</svg>
