<svg xmlns="http://www.w3.org/2000/svg" width="36" height="36" viewBox="0 0 36 36">
  <g id="twitter-icon" transform="translate(-48)">
    <rect id="Rectangle_30" data-name="Rectangle 30" width="36" height="36" rx="4" transform="translate(48)" fill="#fff" opacity="0.1"/>
    <g id="twitter" transform="translate(57.816 11.944)">
      <g id="Group_73" data-name="Group 73">
        <path id="Path_202" data-name="Path 202" d="M15.745,49.515a6.73,6.73,0,0,1-1.86.51,3.21,3.21,0,0,0,1.42-1.784,6.451,6.451,0,0,1-2.047.781,3.228,3.228,0,0,0-5.584,2.207,3.324,3.324,0,0,0,.075.736A9.137,9.137,0,0,1,1.1,48.588,3.229,3.229,0,0,0,2.088,52.9a3.188,3.188,0,0,1-1.458-.4v.035a3.243,3.243,0,0,0,2.586,3.172,3.221,3.221,0,0,1-.846.106,2.854,2.854,0,0,1-.611-.055,3.259,3.259,0,0,0,3.016,2.249,6.486,6.486,0,0,1-4,1.377A6.045,6.045,0,0,1,0,59.345a9.088,9.088,0,0,0,4.952,1.449,9.124,9.124,0,0,0,9.187-9.185c0-.143,0-.28-.012-.417A6.44,6.44,0,0,0,15.745,49.515Z" transform="translate(0 -48)" fill="#fff"/>
      </g>
    </g>
  </g>
</svg>
