<svg xmlns="http://www.w3.org/2000/svg" width="50" height="50" viewBox="0 0 50 50">
  <g id="work-call-icon" transform="translate(0.468)">
    <path id="Path_955" data-name="Path 955" d="M42.677,42.677a25,25,0,1,0-35.354,0A25,25,0,0,0,42.677,42.677Z" transform="translate(-0.468)" fill="#3f74ff"/>
    <path id="Path_1386" data-name="Path 1386" d="M17.4,12.419a10.743,10.743,0,0,1-3.374-.537,1.542,1.542,0,0,0-1.5.316L10.4,13.8A11.757,11.757,0,0,1,5.116,8.519L6.674,6.447A1.529,1.529,0,0,0,7.051,4.9a10.759,10.759,0,0,1-.539-3.379A1.52,1.52,0,0,0,4.993,0H1.518A1.52,1.52,0,0,0,0,1.518a17.422,17.422,0,0,0,17.4,17.4A1.52,1.52,0,0,0,18.921,17.4V13.938A1.52,1.52,0,0,0,17.4,12.419Z" transform="translate(15.072 15.54)" fill="#fff"/>
  </g>
</svg>
