<svg id="work-action-plan-icon" xmlns="http://www.w3.org/2000/svg" width="50.414" height="50.414" viewBox="0 0 50.414 50.414">
  <path id="Path_1390" data-name="Path 1390" d="M63.985,283a.985.985,0,1,0,.985.985A.985.985,0,0,0,63.985,283Zm0,0" transform="translate(-56.797 -255.135)" fill="#3f74ff"/>
  <path id="Path_1391" data-name="Path 1391" d="M50.414,6.892A2.957,2.957,0,0,0,47.46,3.939H30.13V2.954A2.957,2.957,0,0,0,27.176,0H23.238a2.957,2.957,0,0,0-2.954,2.954v.985H2.954a2.954,2.954,0,0,0-.985,5.739V34.236a2.955,2.955,0,0,0,.985,5.74H24.222v4.7a2.954,2.954,0,1,0,1.969,0v-4.7H47.46a2.954,2.954,0,0,0,.985-5.739V9.679a2.955,2.955,0,0,0,1.969-2.786ZM25.207,48.444a.985.985,0,1,1,.985-.985A.986.986,0,0,1,25.207,48.444ZM22.253,2.954a.986.986,0,0,1,.985-.985h3.939a.986.986,0,0,1,.985.985v.985H22.253ZM2.954,5.908H47.46a.985.985,0,1,1,0,1.969H2.954a.985.985,0,1,1,0-1.969Zm.985,28.161V9.846H46.475V34.069ZM47.46,38.007H2.954a.985.985,0,1,1,0-1.969H47.46a.985.985,0,1,1,0,1.969Zm0,0" fill="#3f74ff"/>
  <path id="Path_1392" data-name="Path 1392" d="M114.236,132.632l.7.7a.985.985,0,0,0,1.393-1.393l-.7-.7.7-.7a.985.985,0,1,0-1.393-1.393l-.7.7-.7-.7a.985.985,0,1,0-1.393,1.393l.7.7-.7.7a.985.985,0,0,0,1.393,1.393Zm0,0" transform="translate(-100.845 -116.174)" fill="#3f74ff"/>
  <path id="Path_1393" data-name="Path 1393" d="M375.63,271.239l.7-.7a.985.985,0,1,0-1.393-1.393l-.7.7-.7-.7a.985.985,0,1,0-1.393,1.393l.7.7-.7.7a.985.985,0,1,0,1.393,1.393l.7-.7.7.7a.985.985,0,1,0,1.393-1.393Zm0,0" transform="translate(-335.245 -242.389)" fill="#3f74ff"/>
  <path id="Path_1394" data-name="Path 1394" d="M151.6,146.939a.985.985,0,0,0,1.969,0v-2.954a.985.985,0,0,0-.985-.985h-2.954a.985.985,0,0,0,0,1.969h.577l-9.438,9.438-5.212-5.211a.984.984,0,0,0-1.392,0l-3.938,3.938a2.951,2.951,0,1,0,1.392,1.392l3.242-3.241,5.212,5.211a.984.984,0,0,0,1.392,0L151.6,146.362Zm-22.647,9.846a.985.985,0,1,1,.985-.985A.986.986,0,0,1,128.954,156.785Zm0,0" transform="translate(-113.593 -128.92)" fill="#3f74ff"/>
  <path id="Path_1395" data-name="Path 1395" d="M63.985,143a.985.985,0,0,0-.985.985v9.846a.985.985,0,0,0,1.969,0v-9.846A.985.985,0,0,0,63.985,143Zm0,0" transform="translate(-56.797 -128.92)" fill="#3f74ff"/>
</svg>
