<svg xmlns="http://www.w3.org/2000/svg" width="60" height="38.403" viewBox="0 0 60 38.403">
  <g id="work-handshake-icon" transform="translate(-438.004 -3993)">
    <path id="Path_1388" data-name="Path 1388" d="M59.933,111.251,54.3,95.189a1.172,1.172,0,0,0-1.336-.761L47.089,95.6l-10.32-3.07a5.839,5.839,0,0,0-4.962.356l-1.839,1.062-1.839-1.062a5.839,5.839,0,0,0-4.962-.356L12.882,95.592,7.543,94.183a1.172,1.172,0,0,0-1.4.719L.075,111a1.172,1.172,0,0,0,.51,1.429l5.048,2.914A4.059,4.059,0,0,0,9.7,120.987a4.06,4.06,0,0,0,5.749,3.6,4.052,4.052,0,0,0,4.8,2.367,4.111,4.111,0,0,0,.877-.346,4.054,4.054,0,0,0,3.671,2.34,4.084,4.084,0,0,0,2.677-1l3.562,2.057a4.062,4.062,0,0,0,6.08-3.189,4.061,4.061,0,0,0,5.72-3.726,4.061,4.061,0,0,0,4.536-3.757,4.061,4.061,0,0,0,5.4-4.173l6.468-2.423A1.172,1.172,0,0,0,59.933,111.251ZM8.508,118.428a1.727,1.727,0,0,1-.629-2.348l1.636-2.834a1.719,1.719,0,0,1,2.978,1.716L10.854,117.8h0A1.721,1.721,0,0,1,8.508,118.428Zm6.739,3.327a1.719,1.719,0,0,1-2.977-1.718l.613-1.061h0l1.64-2.84h0l1.447-2.506a1.719,1.719,0,0,1,2.977,1.719l-.431.747,0,0h0L15.68,121h0Zm5.44,2.14a1.719,1.719,0,0,1-2.978-1.716v0h0l2.832-4.906h0a1.719,1.719,0,0,1,2.977,1.719l-.6,1.037h0l-1.636,2.834h0l0,0Zm3.258,2.482a1.727,1.727,0,0,1-.629-2.348l1.636-2.834a1.719,1.719,0,1,1,2.977,1.719l-1.636,2.834A1.72,1.72,0,0,1,23.944,126.377Zm10.612.97a1.721,1.721,0,0,1-2.348.629l-3.372-1.947,1.122-1.943a4.051,4.051,0,0,0,.442-1.123L33.927,125h0l0,0a1.721,1.721,0,0,1,.625,2.345ZM51.909,112.98a4.042,4.042,0,0,0-1.154-1c-.428-.247-1.986-1.183-4.762-2.862a1.172,1.172,0,1,0-1.213,2.006c2.789,1.687,4.36,2.631,4.8,2.886a1.719,1.719,0,0,1-1.719,2.977l-2.511-1.45h0l-9.326-5.384a1.172,1.172,0,0,0-1.172,2.03l9.325,5.384h0a1.719,1.719,0,0,1-1.722,2.975l-1.65-.953,0,0h0l-8.187-4.727a1.172,1.172,0,0,0-1.172,2.03l8.186,4.726h0a1.719,1.719,0,0,1-1.719,2.976L35.1,122.972l0,0h0l-5.164-2.982a4.052,4.052,0,0,0-3.844-1.98,4.113,4.113,0,0,0-.139-.932A4.052,4.052,0,0,0,21.5,114.1a4.135,4.135,0,0,0-.121-.666,4.059,4.059,0,0,0-7-1.594,4.066,4.066,0,0,0-6.89.234l-.7,1.221-4.161-2.4L7.967,96.719,12.6,97.942a1.173,1.173,0,0,0,.633-.01l10.6-3.153a3.542,3.542,0,0,1,3.122.139l.667.385-4.105,2.37a4.1,4.1,0,0,0-1.5,5.59,4.152,4.152,0,0,0,5.523,1.534c1.106-.546,2.715-1.27,3.927-1.731.885.533,2.87,1.737,4.288,2.6a1.172,1.172,0,0,0,1.215-2l-3.406-2.063-1-.606c-.519-.312-.642-.386-.972-.386a1.172,1.172,0,0,0-.386.065,48.663,48.663,0,0,0-4.7,2.029,1.836,1.836,0,0,1-2.455-.6,1.75,1.75,0,0,1,.64-2.388l8.288-4.785a3.541,3.541,0,0,1,3.122-.139l10.6,3.153a1.171,1.171,0,0,0,.564.026l5.158-1.032,4.92,14.018Z" transform="translate(438.004 3900.854)" fill="#3f74ff"/>
    <path id="Path_1389" data-name="Path 1389" d="M339.749,212.262h0a.937.937,0,1,0,.938.937A.937.937,0,0,0,339.748,212.262Z" transform="translate(139.22 3794.997)" fill="#3f74ff"/>
  </g>
</svg>
