<svg xmlns="http://www.w3.org/2000/svg" width="50" height="44.337" viewBox="0 0 50 44.337">
  <g id="work-vision-icon" transform="translate(-0.001 -28.995)">
    <g id="Group_3146" data-name="Group 3146" transform="translate(0.001 28.995)">
      <path id="Path_1396" data-name="Path 1396" d="M49.953,46.661A4.32,4.32,0,0,0,47.8,43.469c-2.336-1.3-4.816.136-6.8,1.44V35.818a4.731,4.731,0,0,0-4.726-4.726h-.734a3.817,3.817,0,0,0-3.387-2.1H17.939a3.817,3.817,0,0,0-3.386,2.1h-.545a4.731,4.731,0,0,0-4.726,4.726v9.277a19.506,19.506,0,0,0-3.331-1.824,4.31,4.31,0,0,0-5.9,3.39,4.255,4.255,0,0,0,2.137,4.357A58.3,58.3,0,0,1,4.462,65.347a2.993,2.993,0,0,0,2.3,2.822V70.9a2.436,2.436,0,0,0,2.434,2.434h2.12a2.428,2.428,0,0,0,2.152-1.3l2-3.784h5.377a.977.977,0,1,0,0-1.953l-8.154-.005a1.569,1.569,0,0,1-1.451-1.549V57.438a4.354,4.354,0,0,0,3.076-1.661h21.38a4.338,4.338,0,0,0,3.089,1.662v7.3a1.569,1.569,0,0,1-1.451,1.549l-7.9.005a.977.977,0,1,0,0,1.953h5.107l2,3.784a2.428,2.428,0,0,0,2.152,1.3h2.12A2.436,2.436,0,0,0,43.243,70.9V68.169a2.99,2.99,0,0,0,2.3-2.823,57.516,57.516,0,0,1,2.276-14.328,4.255,4.255,0,0,0,2.138-4.357ZM17.939,30.948h14.21a1.852,1.852,0,0,1,1.694,2.524L30.693,41.16A1.85,1.85,0,0,1,29,42.3H21.088a1.845,1.845,0,0,1-1.694-1.137l-3.15-7.689A1.852,1.852,0,0,1,17.939,30.948Zm-6.7,4.87a2.776,2.776,0,0,1,2.773-2.773h.154a3.817,3.817,0,0,0,.276,1.167L17.587,41.9a3.818,3.818,0,0,0,3.5,2.35H29a3.814,3.814,0,0,0,3.5-2.35l3.149-7.688a3.826,3.826,0,0,0,.276-1.167h.343a2.776,2.776,0,0,1,2.773,2.773V46.393c-1.847,1.812-3.856,4.134-4.186,6.116a4.114,4.114,0,0,0,0,1.316H15.15a4.215,4.215,0,0,0-.1-1.759,12.728,12.728,0,0,0-3.816-5.425V35.818ZM1.98,46.949a2.34,2.34,0,0,1,3.2-1.883A16.673,16.673,0,0,1,10,48.163c1.272,1.187,2.791,2.75,3.186,4.5A2.336,2.336,0,0,1,11.8,55.32,2.4,2.4,0,0,1,8.8,54.214a10.667,10.667,0,0,0-5.44-4.792A2.3,2.3,0,0,1,1.98,46.949ZM6.414,65.28A61.737,61.737,0,0,0,4.57,52.3a8.262,8.262,0,0,1,1.891,1.838c.877,1.193,1.356,2.4,2.826,3q0,.1-.005.192v7.411A3.514,3.514,0,0,0,9.645,66.3l-2.184,0A1.046,1.046,0,0,1,6.414,65.28Zm5.323,5.843a.479.479,0,0,1-.425.256H9.193a.481.481,0,0,1-.48-.48V68.251h4.542Zm29.071.256h-2.12a.479.479,0,0,1-.425-.256l-1.517-2.872h4.542V70.9a.481.481,0,0,1-.48.481Zm2.778-6.1A1.045,1.045,0,0,1,42.541,66.3l-2.171,0a3.508,3.508,0,0,0,.363-1.553V57.332c0-.06,0-.121,0-.181,0-.006,0-.011,0-.017a4.392,4.392,0,0,0,2.2-2.018,8.023,8.023,0,0,1,2.5-2.815A61.812,61.812,0,0,0,43.587,65.281Zm3.051-15.859a10.668,10.668,0,0,0-5.44,4.792,2.4,2.4,0,0,1-2.992,1.107,2.337,2.337,0,0,1-1.42-2.519,8.127,8.127,0,0,1,2.05-3.423,16.154,16.154,0,0,1,5.982-4.313,2.32,2.32,0,0,1,2.025.108,2.4,2.4,0,0,1-.205,4.248Z" transform="translate(-0.001 -28.995)" fill="#3f74ff"/>
      <path id="Path_1397" data-name="Path 1397" d="M249.309,411.527a.976.976,0,1,0-.528,1.275A.985.985,0,0,0,249.309,411.527Z" transform="translate(-223.27 -373.629)" fill="#3f74ff"/>
    </g>
  </g>
</svg>
